<svg width="208" height="208" viewBox="0 0 208 208" fill="none" xmlns="http://www.w3.org/2000/svg">
<g filter="url(#filter0_f_1_747)">
<path d="M88.0594 196L88.0594 142.485L50.2119 180.333L27.6674 157.788L65.5149 119.941L12 119.941L12 88.0594L65.5149 88.0594L27.6674 50.2119L50.2119 27.6673L88.0594 65.5148L88.0594 12L119.941 12L119.941 65.5149L157.788 27.6673L180.333 50.2119L142.485 88.0594L196 88.0594L196 119.941L142.485 119.941L180.333 157.788L157.788 180.333L119.941 142.485L119.941 196L88.0594 196Z" fill="url(#paint0_linear_1_747)"/>
</g>
<defs>
<filter id="filter0_f_1_747" x="0" y="0" width="208" height="208" filterUnits="userSpaceOnUse" color-interpolation-filters="sRGB">
<feFlood flood-opacity="0" result="BackgroundImageFix"/>
<feBlend mode="normal" in="SourceGraphic" in2="BackgroundImageFix" result="shape"/>
<feGaussianBlur stdDeviation="6" result="effect1_foregroundBlur_1_747"/>
</filter>
<linearGradient id="paint0_linear_1_747" x1="196" y1="104" x2="12" y2="104" gradientUnits="userSpaceOnUse">
<stop stop-color="#1D2328"/>
<stop offset="1" stop-color="#1D2328" stop-opacity="0"/>
</linearGradient>
</defs>
</svg>
